<svg xmlns="http://www.w3.org/2000/svg" viewBox="0 0 1200 120" fill="none">
  <defs>
    <linearGradient id="bg" x1="0%" y1="0%" x2="100%" y2="100%">
      <stop offset="0%" stop-color="#0d1117"/>
      <stop offset="50%" stop-color="#1a2020"/>
      <stop offset="100%" stop-color="#0d1117"/>
    </linearGradient>
    <linearGradient id="accent" x1="0%" y1="0%" x2="100%" y2="0%">
      <stop offset="0%" stop-color="#14b8a6" stop-opacity="0"/>
      <stop offset="50%" stop-color="#14b8a6" stop-opacity="0.15"/>
      <stop offset="100%" stop-color="#14b8a6" stop-opacity="0"/>
    </linearGradient>
    <linearGradient id="line" x1="0%" y1="0%" x2="100%" y2="0%">
      <stop offset="0%" stop-color="#14b8a6" stop-opacity="0"/>
      <stop offset="20%" stop-color="#14b8a6" stop-opacity="0.6"/>
      <stop offset="80%" stop-color="#14b8a6" stop-opacity="0.6"/>
      <stop offset="100%" stop-color="#14b8a6" stop-opacity="0"/>
    </linearGradient>
  </defs>

  <!-- Background -->
  <rect width="1200" height="120" fill="url(#bg)"/>
  <rect y="90" width="1200" height="30" fill="url(#accent)"/>

  <!-- Decorative dots -->
  <circle cx="385" cy="75" r="1" fill="#14b8a6" opacity="0.03"/>
<circle cx="570" cy="40" r="2" fill="#14b8a6" opacity="0.04"/>
<circle cx="755" cy="105" r="3" fill="#14b8a6" opacity="0.05"/>
<circle cx="940" cy="70" r="1" fill="#14b8a6" opacity="0.06"/>
<circle cx="325" cy="35" r="2" fill="#14b8a6" opacity="0.07"/>
<circle cx="510" cy="100" r="3" fill="#14b8a6" opacity="0.03"/>
<circle cx="695" cy="65" r="1" fill="#14b8a6" opacity="0.04"/>
<circle cx="880" cy="30" r="2" fill="#14b8a6" opacity="0.05"/>
<circle cx="265" cy="95" r="3" fill="#14b8a6" opacity="0.06"/>
<circle cx="450" cy="60" r="1" fill="#14b8a6" opacity="0.07"/>
<circle cx="635" cy="25" r="2" fill="#14b8a6" opacity="0.03"/>
<circle cx="820" cy="90" r="3" fill="#14b8a6" opacity="0.04"/>


  <!-- Accent line -->
  <line x1="0" y1="118" x2="1200" y2="118" stroke="url(#line)" stroke-width="2"/>

  <!-- Icon -->
  <g color="#14b8a6">
    <g transform="translate(78,30) scale(0.85)" opacity="0.12">
      <path d="M30,0 L35,8 L44,5 L44,15 L52,18 L48,27 L55,33 L47,38 L48,47 L39,47 L35,55 L28,49 L20,55 L18,47 L8,47 L10,38 L2,33 L8,27 L5,18 L13,15 L12,5 L22,8 Z" fill="none" stroke="currentColor" stroke-width="2.5"/>
      <circle cx="28" cy="28" r="10" fill="none" stroke="currentColor" stroke-width="2.5"/>
    </g>
  </g>

  <!-- Title -->
  <text x="600" y="52" font-family="system-ui,-apple-system,Segoe UI,sans-serif" font-size="32" font-weight="700" fill="#e6edf3" text-anchor="middle" letter-spacing="1">Settings Tools</text>

  <!-- Subtitle -->
  <text x="600" y="78" font-family="system-ui,-apple-system,Segoe UI,sans-serif" font-size="14" fill="#8b949e" text-anchor="middle" letter-spacing="0.5">Terminal-based settings launcher & app store for i3</text>
</svg>